<?xml version="1.0" encoding="utf-8"?>
<!-- Svg Vector Icons : http://www.onlinewebfonts.com/icon -->
<!DOCTYPE svg PUBLIC "-//W3C//DTD SVG 1.1//EN" "http://www.w3.org/Graphics/SVG/1.1/DTD/svg11.dtd">
<svg version="1.1" xmlns="http://www.w3.org/2000/svg" xmlns:xlink="http://www.w3.org/1999/xlink" x="0px" y="0px" viewBox="0 0 256 256" enable-background="new 0 0 256 256" xml:space="preserve">
<metadata> Svg Vector Icons : http://www.onlinewebfonts.com/icon </metadata>
<g><g><path fill="#60A5FA" d="M239.5,121.7c5.9-5.7,7.9-14.1,5.5-21.9c-2.5-7.9-9.2-13.6-17.3-14.8l-49.2-7.2c-4-0.6-7.5-3.1-9.2-6.7l-22-44.7c-3.6-7.4-11-11.9-19.2-11.9c-8.2,0-15.5,4.6-19.2,12l-22,44.7c-1.8,3.6-5.3,6.1-9.2,6.7l-49.2,7.2c-8.2,1.2-14.8,6.9-17.3,14.8c-2.5,7.8-0.4,16.2,5.5,21.9l35.6,34.8c2.9,2.8,4.2,6.8,3.5,10.8l-8.4,49.1c-1.1,6.3,0.5,12.4,4.5,17.3c6.3,7.7,17.6,10.1,26.5,5.4l44-23.2c3.5-1.9,8-1.9,11.5,0l44,23.2c3.2,1.7,6.5,2.5,9.9,2.5c6.3,0,12.5-3,16.5-7.9c4-4.9,5.6-11,4.5-17.3l-8.4-49.1c-0.7-3.9,0.6-8,3.5-10.8L239.5,121.7z M191.4,168.8l8.4,49.1c0.6,3.5-0.3,7-2.5,9.7c-3.6,4.4-10.1,5.9-15.3,3.1l-44-23.2c-3.1-1.6-6.5-2.5-9.9-2.5s-6.9,0.8-9.9,2.5l-44,23.2c-5.2,2.7-11.7,1.3-15.3-3.1c-2.2-2.7-3.2-6.2-2.5-9.7l8.4-49.1c1.2-7-1.1-14.2-6.2-19.1L22.8,115c-3.4-3.3-4.5-7.9-3.1-12.4c1.4-4.6,5.2-7.8,9.9-8.5L78.8,87c7-1,13-5.4,16.1-11.8l22-44.7c2.1-4.3,6.2-6.8,11-6.8c4.8,0,8.9,2.6,11,6.8l22,44.7c3.1,6.3,9.2,10.7,16.1,11.8l49.2,7.2c4.8,0.7,8.5,3.9,9.9,8.5c1.4,4.5,0.2,9.1-3.1,12.4l-35.6,34.8C192.5,154.7,190.2,161.8,191.4,168.8z"/></g></g>
</svg>